"WEB-DL means straight from iTunes where they release "Bluray" quality episodes.
 Such episodes are without any Logo and Caps."

How I Met Your Mother - S07E15 - The Burning Beekeeper - 720p WEB-DL H.264 {$H@uN}

General:

Complete name                  : How I Met Your Mother - S07E15 - The Burning Beekeeper - 720p WEB-DL H.264 {$H@uN}.mkv
Original air date              : February 6 2012
Genre                          : Sitcom
Language                       : English
Encoder                        : $H@uN
File format                    : Matroska
File size                      : 190 MiB
Duration                       : 20mn 27s
Overall bit rate               : 1 301 Kbps


Video:

Format                         : AVC
Duration                       : 20mn 27s
Bit rate                       : 1 200 Kbps
Width                          : 1 280 pixels
Height                         : 720 pixels
Display aspect ratio           : 16:9
Frame rate mode                : Variable
Frame rate                     : 23.976 fps
Color space                    : YUV
Chroma subsampling             : 4:2:0
Bit depth                      : 8 bits
Scan type                      : Progressive
Bits/(Pixel*Frame)             : 0.054
Stream size                    : 172 MiB (91%)
Writing library                : x264 core 112
Laguage                        : English
Subtitles                      : Seperate .srt file included


Audio:

Format                         : AC-3
Mode extension                 : CM (complete main)
Codec ID                       : A_AC3
Duration                       : 20mn 27s
Bit rate mode                  : Constant
Bit rate                       : 96 Kbps
Channel(s)                     : 2 channels
Channel positions              : Front: L R
Sampling rate                  : 48.0 KHz
Bit depth                      : 16 bits
Compression mode               : Lossy
Stream size                    : 14.0 MiB (7%)
Language                       : English

Screen Shots:
 
http://i1140.photobucket.com/albums/n566/ShaunGP/HowIMetYourMother-S07E15-TheBurningBeekeeper-720pWEB-DLH264HuNmkv_snapshot_0742_20120208_221817.jpg
 
http://i1140.photobucket.com/albums/n566/ShaunGP/HowIMetYourMother-S07E15-TheBurningBeekeeper-720pWEB-DLH264HuNmkv_snapshot_0426_20120208_221803.jpg
 
http://i1140.photobucket.com/albums/n566/ShaunGP/HowIMetYourMother-S07E15-TheBurningBeekeeper-720pWEB-DLH264HuNmkv_snapshot_0002_20120208_221736.jpg


Encoder's Notes:

Do Provide Feedback.
Keep in Mind, you are charged nothing for Downloading a TORRENT,
so its your duty to SEED n keep the torrent alive for as long as possible.
Enjoy..!!! Keep Seeding till 1:1 ratio...